<svg width="645" height="205" viewBox="0 0 645 205" fill="none" xmlns="http://www.w3.org/2000/svg">
<g filter="url(#filter0_f_438_484)">
<rect x="35" y="35" width="575" height="135" fill="#E9E9E9"/>
</g>
<path d="M66.8469 114.06V91.8097H69.8268V114.06H66.8469ZM57.192 104.405V101.425H79.4421V104.405H57.192ZM104.558 87.2008V117H100.823V88.6709H102.611L84.7708 108.616L84.7311 107.226H110.358V110.325H81.5525V107.583L99.8294 87.2008H104.558ZM113.755 96.1405C113.967 94.3393 114.629 92.7236 115.742 91.2932C116.881 89.8628 118.443 88.7371 120.43 87.916C122.417 87.0948 124.774 86.6843 127.502 86.6843C129.992 86.6843 132.138 87.0154 133.939 87.6776C135.74 88.3398 137.131 89.2669 138.111 90.4588C139.117 91.6508 139.621 93.0547 139.621 94.6704C139.621 96.0478 139.21 97.2928 138.389 98.4053C137.568 99.4913 136.363 100.352 134.773 100.988C133.184 101.624 131.237 101.941 128.933 101.941V101.226C131.29 101.147 133.316 101.398 135.012 101.981C136.707 102.537 138.005 103.372 138.905 104.484C139.833 105.57 140.296 106.895 140.296 108.458C140.296 110.232 139.78 111.808 138.747 113.186C137.714 114.537 136.204 115.596 134.217 116.364C132.257 117.132 129.847 117.517 126.986 117.517C124.205 117.517 121.781 117.106 119.715 116.285C117.649 115.464 116.033 114.311 114.867 112.828C113.702 111.345 113.04 109.623 112.881 107.663H116.655C116.92 109.782 117.927 111.437 119.675 112.629C121.45 113.795 123.887 114.378 126.986 114.378C130.058 114.378 132.403 113.848 134.018 112.788C135.661 111.702 136.482 110.193 136.482 108.259C136.482 107.146 136.204 106.206 135.647 105.438C135.091 104.67 134.191 104.087 132.946 103.69C131.701 103.266 130.072 103.054 128.059 103.054H122.496V100.154H128.059C130.707 100.154 132.654 99.6767 133.899 98.7231C135.171 97.7431 135.806 96.5379 135.806 95.1075C135.806 93.3858 135.065 92.0746 133.581 91.174C132.098 90.2734 130.005 89.8231 127.304 89.8231C124.522 89.8231 122.271 90.3794 120.549 91.4919C118.854 92.5779 117.847 94.1274 117.53 96.1405H113.755ZM155.454 94.6307H159.109L160.381 102.22V117H156.725V101.703L155.454 94.6307ZM168.923 94.1142C170.857 94.1142 172.499 94.538 173.85 95.3856C175.201 96.2068 176.234 97.412 176.949 99.0013C177.664 100.564 178.022 102.458 178.022 104.683V117H174.367V105.319C174.367 102.643 173.81 100.63 172.698 99.2794C171.585 97.902 169.97 97.2133 167.85 97.2133C166.341 97.2133 165.016 97.5841 163.877 98.3258C162.765 99.0675 161.904 100.101 161.295 101.425C160.685 102.723 160.381 104.246 160.381 105.994L158.911 104.961C159.096 102.736 159.626 100.816 160.5 99.1999C161.401 97.5841 162.566 96.3392 163.996 95.4651C165.453 94.5645 167.096 94.1142 168.923 94.1142ZM186.525 94.1142C188.458 94.1142 190.101 94.538 191.451 95.3856C192.829 96.2068 193.875 97.412 194.59 99.0013C195.305 100.564 195.663 102.458 195.663 104.683V117H192.008V105.319C192.008 102.643 191.451 100.63 190.339 99.2794C189.226 97.902 187.611 97.2133 185.492 97.2133C183.982 97.2133 182.657 97.5841 181.518 98.3258C180.406 99.0675 179.545 100.101 178.936 101.425C178.327 102.723 178.022 104.246 178.022 105.994L176.552 104.961C176.737 102.736 177.267 100.816 178.141 99.1999C179.042 97.5841 180.207 96.3392 181.638 95.4651C183.094 94.5645 184.723 94.1142 186.525 94.1142ZM201.263 94.5513L203.091 94.8691L204.919 94.5513V117H201.263V94.5513ZM203.051 91.2535C202.31 91.2535 201.674 91.0283 201.144 90.578C200.641 90.1012 200.389 89.5185 200.389 88.8298C200.389 88.1146 200.641 87.5319 201.144 87.0816C201.674 86.6048 202.31 86.3664 203.051 86.3664C203.846 86.3664 204.495 86.6048 204.998 87.0816C205.502 87.5319 205.753 88.1146 205.753 88.8298C205.753 89.5185 205.502 90.1012 204.998 90.578C204.495 91.0283 203.846 91.2535 203.051 91.2535ZM210.847 86.4061H214.503V117H210.847V86.4061ZM220.431 86.4061H224.087V117H220.431V86.4061ZM233.304 94.1142C235.397 94.1142 237.172 94.538 238.629 95.3856C240.085 96.2068 241.198 97.412 241.966 99.0013C242.734 100.564 243.118 102.458 243.118 104.683V117H239.463V105.319C239.463 102.643 238.854 100.63 237.635 99.2794C236.417 97.902 234.616 97.2133 232.232 97.2133C230.616 97.2133 229.186 97.5841 227.941 98.3258C226.722 99.0675 225.769 100.101 225.08 101.425C224.418 102.723 224.087 104.246 224.087 105.994L222.616 104.961C222.802 102.736 223.371 100.816 224.325 99.1999C225.279 97.5841 226.523 96.3392 228.06 95.4651C229.623 94.5645 231.371 94.1142 233.304 94.1142ZM260.676 117.517C258.053 117.517 255.736 117.026 253.723 116.046C251.736 115.066 250.186 113.689 249.074 111.914C247.961 110.14 247.405 108.1 247.405 105.795C247.405 103.465 247.961 101.425 249.074 99.6767C250.186 97.9285 251.736 96.5644 253.723 95.5843C255.736 94.6042 258.053 94.1142 260.676 94.1142C263.324 94.1142 265.642 94.6042 267.629 95.5843C269.615 96.5644 271.165 97.9285 272.277 99.6767C273.416 101.425 273.986 103.465 273.986 105.795C273.986 108.1 273.416 110.14 272.277 111.914C271.165 113.689 269.615 115.066 267.629 116.046C265.642 117.026 263.324 117.517 260.676 117.517ZM260.676 114.457C262.636 114.457 264.331 114.113 265.761 113.424C267.192 112.709 268.291 111.702 269.059 110.404C269.854 109.107 270.251 107.57 270.251 105.795C270.251 104.047 269.854 102.524 269.059 101.226C268.291 99.9284 267.192 98.9218 265.761 98.2066C264.331 97.4914 262.636 97.1339 260.676 97.1339C258.742 97.1339 257.047 97.4914 255.59 98.2066C254.16 98.9218 253.06 99.9284 252.292 101.226C251.524 102.524 251.14 104.047 251.14 105.795C251.14 107.57 251.524 109.107 252.292 110.404C253.06 111.702 254.16 112.709 255.59 113.424C257.047 114.113 258.742 114.457 260.676 114.457ZM252.372 91.2535C252.504 89.5847 252.968 88.2603 253.762 87.2802C254.557 86.2737 255.656 85.7704 257.06 85.7704C257.722 85.7704 258.371 85.9029 259.007 86.1677C259.643 86.4326 260.252 86.724 260.835 87.0418C261.444 87.3597 262.013 87.6511 262.543 87.916C263.099 88.1543 263.603 88.2735 264.053 88.2735C264.662 88.2735 265.165 88.0616 265.563 87.6378C265.96 87.1875 266.212 86.5783 266.318 85.8101H269.019C268.913 87.3994 268.463 88.7106 267.669 89.7436C266.874 90.7502 265.761 91.2535 264.331 91.2535C263.669 91.2535 263.02 91.121 262.384 90.8561C261.748 90.5913 261.126 90.2999 260.517 89.982C259.934 89.6642 259.378 89.3861 258.848 89.1477C258.318 88.8828 257.828 88.7503 257.378 88.7503C256.769 88.7503 256.265 88.9755 255.868 89.4258C255.497 89.8496 255.246 90.4588 255.113 91.2535H252.372ZM290.356 117.517C287.786 117.517 285.508 117.026 283.522 116.046C281.562 115.04 280.012 113.662 278.873 111.914C277.761 110.14 277.204 108.1 277.204 105.795C277.204 103.465 277.734 101.425 278.794 99.6767C279.853 97.9285 281.323 96.5644 283.204 95.5843C285.085 94.6042 287.243 94.1142 289.68 94.1142C292.091 94.1142 294.196 94.644 295.998 95.7035C297.799 96.763 299.19 98.2596 300.17 100.193C301.176 102.1 301.679 104.325 301.679 106.868H279.986V103.968H300.13L297.984 105.279C297.905 103.61 297.508 102.167 296.792 100.948C296.077 99.7297 295.11 98.7894 293.892 98.1272C292.673 97.465 291.256 97.1339 289.641 97.1339C287.892 97.1339 286.369 97.4914 285.071 98.2066C283.773 98.8953 282.754 99.8754 282.012 101.147C281.297 102.418 280.939 103.915 280.939 105.637C280.939 107.438 281.35 109.001 282.171 110.325C282.992 111.649 284.144 112.669 285.628 113.384C287.111 114.1 288.859 114.457 290.872 114.457C292.7 114.457 294.488 114.153 296.236 113.543C298.011 112.934 299.6 112.1 301.004 111.04V113.901C299.627 115.013 297.984 115.901 296.077 116.563C294.17 117.199 292.263 117.517 290.356 117.517ZM328.033 110.444C328.033 111.875 327.596 113.119 326.722 114.179C325.875 115.239 324.616 116.06 322.948 116.642C321.305 117.225 319.306 117.517 316.948 117.517C314.538 117.517 312.405 117.185 310.551 116.523C308.724 115.835 307.293 114.881 306.26 113.662C305.227 112.444 304.671 111.027 304.591 109.411H308.326C308.485 110.444 308.949 111.358 309.717 112.153C310.485 112.921 311.492 113.517 312.736 113.941C313.981 114.364 315.399 114.576 316.988 114.576C319.292 114.576 321.093 114.232 322.391 113.543C323.716 112.828 324.378 111.861 324.378 110.643C324.378 109.689 323.954 108.987 323.107 108.537C322.259 108.06 320.683 107.703 318.378 107.464L314.048 107.027C311.902 106.815 310.18 106.431 308.882 105.875C307.611 105.292 306.697 104.577 306.141 103.729C305.585 102.855 305.307 101.888 305.307 100.829C305.307 99.3721 305.744 98.1536 306.618 97.1736C307.518 96.167 308.763 95.4121 310.353 94.9088C311.942 94.3791 313.783 94.1142 315.875 94.1142C318.1 94.1142 320.074 94.4321 321.795 95.0678C323.544 95.7035 324.934 96.5908 325.967 97.7298C327 98.8688 327.57 100.18 327.676 101.663H323.981C323.848 100.816 323.451 100.048 322.789 99.3589C322.127 98.6437 321.199 98.0742 320.007 97.6504C318.842 97.2266 317.398 97.0147 315.677 97.0147C313.558 97.0147 311.902 97.3193 310.71 97.9285C309.545 98.5377 308.962 99.4251 308.962 100.591C308.962 101.438 309.346 102.114 310.114 102.617C310.882 103.12 312.246 103.478 314.207 103.69L319.133 104.206C321.385 104.418 323.16 104.789 324.457 105.319C325.755 105.848 326.669 106.537 327.199 107.385C327.755 108.232 328.033 109.252 328.033 110.444ZM364.882 117L364.088 108.458L365.16 105.835L364.167 103.014L365.717 86.4061H369.452L367.584 105.637L368.617 117H364.882ZM366.273 105.795C365.69 108.126 364.79 110.179 363.571 111.954C362.379 113.702 360.922 115.066 359.201 116.046C357.505 117.026 355.625 117.517 353.559 117.517C351.36 117.517 349.413 117.026 347.718 116.046C346.023 115.04 344.685 113.662 343.705 111.914C342.751 110.14 342.275 108.1 342.275 105.795C342.275 103.465 342.751 101.425 343.705 99.6767C344.685 97.9285 346.023 96.5644 347.718 95.5843C349.413 94.6042 351.36 94.1142 353.559 94.1142C355.625 94.1142 357.505 94.6042 359.201 95.5843C360.922 96.5644 362.392 97.9285 363.611 99.6767C364.829 101.425 365.717 103.465 366.273 105.795ZM346.009 105.795C346.009 107.491 346.354 108.987 347.042 110.285C347.758 111.583 348.724 112.603 349.943 113.345C351.188 114.06 352.592 114.417 354.155 114.417C355.744 114.417 357.201 114.06 358.525 113.345C359.876 112.603 361.068 111.583 362.101 110.285C363.161 108.987 364.021 107.491 364.684 105.795C364.021 104.1 363.161 102.604 362.101 101.306C361.068 100.008 359.876 99.0013 358.525 98.2861C357.201 97.5444 355.744 97.1736 354.155 97.1736C352.592 97.1736 351.188 97.5444 349.943 98.2861C348.724 99.0013 347.758 100.008 347.042 101.306C346.354 102.604 346.009 104.1 346.009 105.795ZM385.845 117.517C383.276 117.517 380.998 117.026 379.011 116.046C377.051 115.04 375.502 113.662 374.363 111.914C373.25 110.14 372.694 108.1 372.694 105.795C372.694 103.465 373.224 101.425 374.283 99.6767C375.343 97.9285 376.813 96.5644 378.693 95.5843C380.574 94.6042 382.733 94.1142 385.17 94.1142C387.58 94.1142 389.686 94.644 391.487 95.7035C393.288 96.763 394.679 98.2596 395.659 100.193C396.666 102.1 397.169 104.325 397.169 106.868H375.475V103.968H395.619L393.474 105.279C393.394 103.61 392.997 102.167 392.282 100.948C391.567 99.7297 390.6 98.7894 389.381 98.1272C388.163 97.465 386.746 97.1339 385.13 97.1339C383.382 97.1339 381.859 97.4914 380.561 98.2066C379.263 98.8953 378.243 99.8754 377.501 101.147C376.786 102.418 376.429 103.915 376.429 105.637C376.429 107.438 376.839 109.001 377.66 110.325C378.481 111.649 379.634 112.669 381.117 113.384C382.6 114.1 384.349 114.457 386.362 114.457C388.189 114.457 389.977 114.153 391.726 113.543C393.5 112.934 395.09 112.1 396.493 111.04V113.901C395.116 115.013 393.474 115.901 391.567 116.563C389.659 117.199 387.752 117.517 385.845 117.517ZM436.45 108.497C436.159 110.272 435.431 111.835 434.265 113.186C433.126 114.537 431.669 115.596 429.895 116.364C428.12 117.132 426.16 117.517 424.014 117.517C421.524 117.517 419.326 117.026 417.419 116.046C415.512 115.04 414.015 113.662 412.929 111.914C411.869 110.14 411.34 108.1 411.34 105.795C411.34 103.491 411.869 101.465 412.929 99.7164C414.015 97.9417 415.512 96.5644 417.419 95.5843C419.326 94.6042 421.524 94.1142 424.014 94.1142C426.16 94.1142 428.12 94.4983 429.895 95.2664C431.669 96.0081 433.126 97.0544 434.265 98.4053C435.431 99.7562 436.159 101.332 436.45 103.133H432.676C432.279 101.279 431.285 99.8224 429.696 98.7629C428.133 97.6769 426.239 97.1339 424.014 97.1339C422.213 97.1339 420.637 97.4914 419.286 98.2066C417.962 98.9218 416.929 99.9284 416.187 101.226C415.445 102.498 415.074 104.021 415.074 105.795C415.074 107.57 415.445 109.107 416.187 110.404C416.929 111.702 417.962 112.709 419.286 113.424C420.637 114.113 422.213 114.457 424.014 114.457C426.266 114.457 428.173 113.914 429.736 112.828C431.325 111.742 432.305 110.298 432.676 108.497H436.45ZM440.783 86.4061H444.438V117H440.783V86.4061ZM450.366 94.5513L452.194 94.8691L454.022 94.5513V117H450.366V94.5513ZM452.154 91.2535C451.413 91.2535 450.777 91.0283 450.247 90.578C449.744 90.1012 449.492 89.5185 449.492 88.8298C449.492 88.1146 449.744 87.5319 450.247 87.0816C450.777 86.6048 451.413 86.3664 452.154 86.3664C452.949 86.3664 453.598 86.6048 454.101 87.0816C454.604 87.5319 454.856 88.1146 454.856 88.8298C454.856 89.5185 454.604 90.1012 454.101 90.578C453.598 91.0283 452.949 91.2535 452.154 91.2535ZM471.751 117.517C469.181 117.517 466.903 117.026 464.917 116.046C462.957 115.04 461.407 113.662 460.268 111.914C459.156 110.14 458.599 108.1 458.599 105.795C458.599 103.465 459.129 101.425 460.189 99.6767C461.248 97.9285 462.718 96.5644 464.599 95.5843C466.48 94.6042 468.638 94.1142 471.075 94.1142C473.486 94.1142 475.592 94.644 477.393 95.7035C479.194 96.763 480.585 98.2596 481.565 100.193C482.571 102.1 483.074 104.325 483.074 106.868H461.381V103.968H481.525L479.379 105.279C479.3 103.61 478.903 102.167 478.187 100.948C477.472 99.7297 476.505 98.7894 475.287 98.1272C474.068 97.465 472.651 97.1339 471.036 97.1339C469.287 97.1339 467.764 97.4914 466.466 98.2066C465.168 98.8953 464.149 99.8754 463.407 101.147C462.692 102.418 462.334 103.915 462.334 105.637C462.334 107.438 462.745 109.001 463.566 110.325C464.387 111.649 465.539 112.669 467.023 113.384C468.506 114.1 470.254 114.457 472.267 114.457C474.095 114.457 475.883 114.153 477.631 113.543C479.406 112.934 480.995 112.1 482.399 111.04V113.901C481.022 115.013 479.379 115.901 477.472 116.563C475.565 117.199 473.658 117.517 471.751 117.517ZM486.582 94.6307H490.238L491.509 102.22V117H487.854V101.703L486.582 94.6307ZM500.767 94.1142C502.859 94.1142 504.634 94.538 506.091 95.3856C507.548 96.2068 508.66 97.412 509.428 99.0013C510.197 100.564 510.581 102.458 510.581 104.683V117H506.925V105.319C506.925 102.643 506.303 100.63 505.058 99.2794C503.839 97.902 502.051 97.2133 499.694 97.2133C498.052 97.2133 496.608 97.5841 495.363 98.3258C494.145 99.0675 493.191 100.101 492.502 101.425C491.84 102.723 491.509 104.246 491.509 105.994L490.039 104.961C490.224 102.736 490.794 100.816 491.748 99.1999C492.701 97.5841 493.946 96.3392 495.482 95.4651C497.045 94.5645 498.807 94.1142 500.767 94.1142ZM512.964 97.5709V95.8227L517.891 94.9088L519.361 88.8298H521.546V94.6307H532.433V97.5709H521.546V108.934C521.546 110.947 521.983 112.365 522.857 113.186C523.758 113.98 525.135 114.378 526.989 114.378C528.208 114.378 529.267 114.232 530.168 113.941C531.095 113.649 531.996 113.225 532.87 112.669V115.887C532.234 116.285 531.294 116.656 530.049 117C528.83 117.344 527.559 117.517 526.235 117.517C524.221 117.517 522.592 117.172 521.347 116.483C520.129 115.768 519.242 114.815 518.685 113.623C518.156 112.404 517.891 111.027 517.891 109.491V97.5709H512.964ZM547.801 117.517C545.231 117.517 542.953 117.026 540.967 116.046C539.007 115.04 537.457 113.662 536.318 111.914C535.206 110.14 534.649 108.1 534.649 105.795C534.649 103.465 535.179 101.425 536.239 99.6767C537.298 97.9285 538.768 96.5644 540.649 95.5843C542.53 94.6042 544.688 94.1142 547.125 94.1142C549.536 94.1142 551.642 94.644 553.443 95.7035C555.244 96.763 556.635 98.2596 557.615 100.193C558.621 102.1 559.125 104.325 559.125 106.868H537.431V103.968H557.575L555.429 105.279C555.35 103.61 554.953 102.167 554.237 100.948C553.522 99.7297 552.555 98.7894 551.337 98.1272C550.119 97.465 548.701 97.1339 547.086 97.1339C545.337 97.1339 543.814 97.4914 542.516 98.2066C541.219 98.8953 540.199 99.8754 539.457 101.147C538.742 102.418 538.384 103.915 538.384 105.637C538.384 107.438 538.795 109.001 539.616 110.325C540.437 111.649 541.589 112.669 543.073 113.384C544.556 114.1 546.304 114.457 548.317 114.457C550.145 114.457 551.933 114.153 553.681 113.543C555.456 112.934 557.045 112.1 558.449 111.04V113.901C557.072 115.013 555.429 115.901 553.522 116.563C551.615 117.199 549.708 117.517 547.801 117.517ZM585.479 110.444C585.479 111.875 585.041 113.119 584.167 114.179C583.32 115.239 582.062 116.06 580.393 116.642C578.751 117.225 576.751 117.517 574.393 117.517C571.983 117.517 569.85 117.185 567.996 116.523C566.169 115.835 564.738 114.881 563.705 113.662C562.672 112.444 562.116 111.027 562.036 109.411H565.771C565.93 110.444 566.394 111.358 567.162 112.153C567.93 112.921 568.937 113.517 570.182 113.941C571.427 114.364 572.844 114.576 574.433 114.576C576.737 114.576 578.539 114.232 579.837 113.543C581.161 112.828 581.823 111.861 581.823 110.643C581.823 109.689 581.399 108.987 580.552 108.537C579.704 108.06 578.128 107.703 575.824 107.464L571.493 107.027C569.347 106.815 567.625 106.431 566.328 105.875C565.056 105.292 564.142 104.577 563.586 103.729C563.03 102.855 562.752 101.888 562.752 100.829C562.752 99.3721 563.189 98.1536 564.063 97.1736C564.963 96.167 566.208 95.4121 567.798 94.9088C569.387 94.3791 571.228 94.1142 573.32 94.1142C575.545 94.1142 577.519 94.4321 579.241 95.0678C580.989 95.7035 582.379 96.5908 583.412 97.7298C584.445 98.8688 585.015 100.18 585.121 101.663H581.426C581.293 100.816 580.896 100.048 580.234 99.3589C579.572 98.6437 578.645 98.0742 577.453 97.6504C576.287 97.2266 574.844 97.0147 573.122 97.0147C571.003 97.0147 569.347 97.3193 568.155 97.9285C566.99 98.5377 566.407 99.4251 566.407 100.591C566.407 101.438 566.791 102.114 567.559 102.617C568.327 103.12 569.692 103.478 571.652 103.69L576.578 104.206C578.83 104.418 580.605 104.789 581.903 105.319C583.201 105.848 584.114 106.537 584.644 107.385C585.2 108.232 585.479 109.252 585.479 110.444Z" fill="#5E22F3"/>
<defs>
<filter id="filter0_f_438_484" x="0.799999" y="0.799999" width="643.4" height="203.4" filterUnits="userSpaceOnUse" color-interpolation-filters="sRGB">
<feFlood flood-opacity="0" result="BackgroundImageFix"/>
<feBlend mode="normal" in="SourceGraphic" in2="BackgroundImageFix" result="shape"/>
<feGaussianBlur stdDeviation="17.1" result="effect1_foregroundBlur_438_484"/>
</filter>
</defs>
</svg>
