<svg width="23" height="24" viewBox="0 0 23 24" fill="none" xmlns="http://www.w3.org/2000/svg">
<path fill-rule="evenodd" clip-rule="evenodd" d="M6.85457 0.145386C5.02564 0.232396 3.44043 0.703868 2.1604 2.04782C0.875907 3.39883 0.434311 5.07689 0.351584 6.98524C0.30016 8.17635 -0.00054577 17.1749 0.871436 19.5347C1.45947 21.1268 2.61761 22.3509 4.14134 22.9729C4.85234 23.2645 5.66398 23.4619 6.85457 23.5195C16.8097 23.9945 20.5 23.7359 22.0561 19.5347C22.3322 18.7869 22.5223 17.9319 22.5748 16.6796C23.0298 6.15608 22.5011 3.87504 20.766 2.04782C19.3899 0.600392 17.7711 -0.384905 6.85457 0.145386ZM6.94622 21.403C5.85624 21.3513 5.26486 21.1598 4.87024 20.9987C3.87752 20.5919 3.13187 19.8089 2.74842 18.7683C2.08437 16.9752 2.30461 8.45874 2.36386 7.08068C2.42199 5.73084 2.68135 4.49718 3.58463 3.54478C4.70256 2.36896 6.1469 1.7927 15.9813 2.26068C17.2647 2.32182 18.4374 2.59472 19.3429 3.54478C20.4608 4.72059 21.0153 6.25522 20.5637 16.5848C20.5145 17.7312 20.3323 18.3532 20.1791 18.7683C19.1674 21.5021 16.8399 21.8816 6.94622 21.403ZM16.0897 5.55538C16.0897 6.33378 16.6901 6.96673 17.4313 6.96673C18.1725 6.96673 18.7739 6.33378 18.7739 5.55538C18.7739 4.777 18.1725 4.14461 17.4313 4.14461C16.6901 4.14461 16.0897 4.777 16.0897 5.55538ZM5.72322 11.8319C5.72322 15.1665 8.29334 17.87 11.4638 17.87C14.6342 17.87 17.2043 15.1665 17.2043 11.8319C17.2043 8.49724 14.6342 5.79543 11.4638 5.79543C8.29334 5.79543 5.72322 8.49724 5.72322 11.8319ZM7.73772 11.8319C7.73772 9.66836 9.40567 7.91303 11.4638 7.91303C13.5219 7.91303 15.1898 9.66836 15.1898 11.8319C15.1898 13.9965 13.5219 15.7524 11.4638 15.7524C9.40567 15.7524 7.73772 13.9965 7.73772 11.8319Z" fill="#E9E9E9"/>
</svg>
