<svg width="25" height="24" viewBox="0 0 25 24" fill="none" xmlns="http://www.w3.org/2000/svg">
<path fill-rule="evenodd" clip-rule="evenodd" d="M8.75646 7.53655H13.7493V10.0314H13.8219C14.5173 8.81558 16.2176 7.53655 18.753 7.53655C24.0252 7.53655 25 10.7349 25 14.8955V23.6923H19.7934L19.7926 15.8578C19.7926 14.0664 19.7548 11.7611 17.0851 11.7611C14.3745 11.7611 13.9585 13.7105 13.9585 15.7277V23.6923H8.75646V7.53655ZM5.80582 2.63933C5.80582 4.09593 4.59253 5.27867 3.0983 5.27867C1.6033 5.27867 0.390015 4.09593 0.390015 2.63933C0.390015 1.18198 1.6033 0 3.0983 0C4.59253 0 5.80582 1.18198 5.80582 2.63933ZM0.390015 7.53655H5.80582V23.6923H0.390015V7.53655Z" fill="#E9E9E9"/>
</svg>
