<svg width="34" height="45" viewBox="0 0 34 45" fill="none" xmlns="http://www.w3.org/2000/svg">
<path d="M16.8635 31.7273C11.7541 31.7273 7.57373 27.6918 7.57373 22.7571V10.9702C7.57373 6.03548 11.7541 2 16.8635 2C21.9729 2 26.1533 6.03548 26.1533 10.9702V22.7571C26.1533 27.6918 21.9729 31.7273 16.8635 31.7273Z" fill="#EBA2B6" fill-opacity="0.65"/>
<path d="M16.8636 42.875V37.3011M16.8636 37.3011C12.9216 37.3011 9.14093 35.7352 6.35346 32.9477C3.56599 30.1602 2 26.3796 2 22.4375M16.8636 37.3011C20.8057 37.3011 24.5863 35.7352 27.3738 32.9477C30.1613 30.1602 31.7273 26.3796 31.7273 22.4375M16.8636 31.7273C11.7543 31.7273 7.57386 27.6918 7.57386 22.7571V10.9702C7.57386 6.03548 11.7543 2 16.8636 2C21.973 2 26.1534 6.03548 26.1534 10.9702V22.7571C26.1534 27.6918 21.973 31.7273 16.8636 31.7273Z" stroke="#DA3368" stroke-width="2.78693" stroke-linecap="round" stroke-linejoin="round"/>
</svg>
