<svg width="470" height="382" viewBox="0 0 470 382" fill="none" xmlns="http://www.w3.org/2000/svg">
<g filter="url(#filter0_f_438_485)">
<rect x="35" y="35" width="400" height="312" fill="#E9E9E9"/>
</g>
<rect x="84" y="127" width="255" height="11" fill="#DCC2FF"/>
<rect x="84" y="175" width="267" height="11" fill="#DCC2FF"/>
<path d="M85.629 122.345H89.4036C89.589 123.749 90.1453 124.981 91.0723 126.04C91.9994 127.1 93.2179 127.921 94.7277 128.504C96.264 129.06 98.0255 129.338 100.012 129.338C103.005 129.338 105.376 128.835 107.124 127.828C108.899 126.795 109.786 125.404 109.786 123.656C109.786 122.305 109.23 121.272 108.118 120.557C107.031 119.842 105.124 119.325 102.396 119.008L96.6349 118.292C93.006 117.869 90.3969 117.008 88.8076 115.71C87.2183 114.385 86.4237 112.611 86.4237 110.386C86.4237 108.611 86.9534 107.075 88.013 105.777C89.0725 104.452 90.5558 103.446 92.463 102.757C94.3966 102.042 96.6481 101.684 99.2175 101.684C101.787 101.684 104.065 102.082 106.051 102.876C108.065 103.644 109.654 104.73 110.819 106.134C112.011 107.512 112.66 109.141 112.766 111.021H108.992C108.833 109.75 108.329 108.664 107.482 107.763C106.634 106.836 105.495 106.121 104.065 105.618C102.661 105.088 101.019 104.823 99.138 104.823C96.4097 104.823 94.2244 105.313 92.5822 106.293C90.9664 107.247 90.1585 108.584 90.1585 110.306C90.1585 111.631 90.6883 112.65 91.7478 113.366C92.8338 114.054 94.6615 114.558 97.2309 114.875L102.873 115.63C105.495 115.948 107.574 116.412 109.111 117.021C110.674 117.63 111.799 118.451 112.488 119.484C113.177 120.491 113.521 121.776 113.521 123.338C113.521 125.219 112.952 126.848 111.813 128.225C110.7 129.603 109.124 130.662 107.084 131.404C105.045 132.146 102.674 132.517 99.9724 132.517C97.2441 132.517 94.8204 132.093 92.7014 131.245C90.5823 130.371 88.9003 129.179 87.6554 127.669C86.4104 126.133 85.735 124.358 85.629 122.345ZM130.015 132.517C127.446 132.517 125.168 132.026 123.181 131.046C121.221 130.04 119.672 128.662 118.533 126.914C117.42 125.14 116.864 123.1 116.864 120.795C116.864 118.465 117.394 116.425 118.453 114.677C119.513 112.928 120.983 111.564 122.863 110.584C124.744 109.604 126.903 109.114 129.34 109.114C131.75 109.114 133.856 109.644 135.657 110.703C137.458 111.763 138.849 113.26 139.829 115.193C140.836 117.1 141.339 119.325 141.339 121.868H119.645V118.968H139.789L137.644 120.279C137.564 118.61 137.167 117.167 136.452 115.948C135.737 114.73 134.77 113.789 133.551 113.127C132.333 112.465 130.916 112.134 129.3 112.134C127.552 112.134 126.029 112.491 124.731 113.207C123.433 113.895 122.413 114.875 121.671 116.147C120.956 117.418 120.599 118.915 120.599 120.637C120.599 122.438 121.009 124.001 121.83 125.325C122.652 126.649 123.804 127.669 125.287 128.384C126.77 129.1 128.519 129.457 130.532 129.457C132.359 129.457 134.147 129.153 135.896 128.543C137.67 127.934 139.26 127.1 140.664 126.04V128.901C139.286 130.013 137.644 130.901 135.737 131.563C133.83 132.199 131.922 132.517 130.015 132.517ZM166.7 126.557V122.544L166.859 121.948V118.253L166.7 117.458V109.631H170.355V126.04C170.355 128.954 169.759 131.378 168.567 133.311C167.402 135.245 165.812 136.688 163.799 137.642C161.786 138.596 159.495 139.072 156.926 139.072C154.992 139.072 153.191 138.794 151.522 138.238C149.88 137.708 148.304 136.887 146.794 135.775V132.556C148.383 133.854 150.012 134.755 151.681 135.258C153.376 135.761 155.058 136.013 156.727 136.013C159.958 136.013 162.422 135.165 164.117 133.47C165.839 131.801 166.7 129.497 166.7 126.557ZM155.336 130.57C153.323 130.57 151.495 130.119 149.853 129.219C148.237 128.318 146.953 127.073 145.999 125.484C145.046 123.868 144.569 121.987 144.569 119.842C144.569 117.67 145.046 115.789 145.999 114.2C146.953 112.584 148.237 111.339 149.853 110.465C151.495 109.564 153.323 109.114 155.336 109.114C156.846 109.114 158.25 109.353 159.548 109.829C160.846 110.28 162.025 110.889 163.084 111.657C164.144 112.425 165.044 113.286 165.786 114.24C166.528 115.193 167.097 116.16 167.494 117.14C167.918 118.094 168.13 118.994 168.13 119.842C168.13 120.928 167.812 122.093 167.176 123.338C166.567 124.557 165.68 125.722 164.514 126.835C163.375 127.921 162.025 128.821 160.462 129.537C158.925 130.225 157.217 130.57 155.336 130.57ZM156.33 127.629C158.396 127.629 160.303 127.02 162.051 125.802C163.799 124.583 165.402 122.597 166.859 119.842C165.428 117.034 163.826 115.034 162.051 113.842C160.303 112.624 158.396 112.015 156.33 112.015C154.608 112.015 153.138 112.359 151.919 113.048C150.727 113.71 149.813 114.624 149.178 115.789C148.569 116.955 148.264 118.306 148.264 119.842C148.264 121.325 148.569 122.663 149.178 123.855C149.813 125.02 150.727 125.947 151.919 126.636C153.138 127.298 154.608 127.629 156.33 127.629ZM185.402 132.517C183.363 132.517 181.628 132.106 180.197 131.285C178.794 130.437 177.708 129.219 176.939 127.629C176.198 126.04 175.827 124.133 175.827 121.908V109.631H179.482V121.312C179.482 123.961 180.078 125.974 181.27 127.351C182.462 128.702 184.197 129.378 186.475 129.378C188.091 129.378 189.495 129.02 190.687 128.305C191.879 127.563 192.806 126.53 193.468 125.206C194.13 123.881 194.461 122.345 194.461 120.597L195.892 121.431C195.733 123.683 195.177 125.643 194.223 127.312C193.296 128.98 192.077 130.265 190.568 131.166C189.058 132.066 187.336 132.517 185.402 132.517ZM195.693 132L194.461 124.371V109.631H198.117V124.928L199.348 132H195.693ZM203.243 109.631H206.898L208.169 117.259V132H204.514V116.584L203.243 109.631ZM220.049 109.551V112.849C219.546 112.69 218.95 112.571 218.261 112.491C217.599 112.412 216.963 112.372 216.354 112.372C214.765 112.372 213.348 112.73 212.103 113.445C210.858 114.16 209.891 115.206 209.202 116.584C208.514 117.935 208.169 119.537 208.169 121.391L207.136 119.961C207.189 118.398 207.441 116.955 207.891 115.63C208.342 114.306 208.977 113.167 209.798 112.213C210.646 111.233 211.653 110.478 212.818 109.949C214.01 109.392 215.348 109.114 216.831 109.114C217.387 109.114 217.957 109.154 218.539 109.233C219.149 109.313 219.652 109.419 220.049 109.551ZM243.691 132L242.897 123.537L243.89 120.795L242.897 118.094L243.691 109.631H247.426L246.393 120.795L247.426 132H243.691ZM245.122 120.795C244.539 123.126 243.638 125.179 242.42 126.954C241.228 128.702 239.771 130.066 238.049 131.046C236.354 132.026 234.473 132.517 232.407 132.517C230.209 132.517 228.262 132.026 226.567 131.046C224.871 130.04 223.534 128.662 222.554 126.914C221.6 125.14 221.123 123.1 221.123 120.795C221.123 118.465 221.6 116.425 222.554 114.677C223.534 112.928 224.871 111.564 226.567 110.584C228.262 109.604 230.209 109.114 232.407 109.114C234.473 109.114 236.354 109.604 238.049 110.584C239.771 111.564 241.241 112.928 242.46 114.677C243.678 116.425 244.565 118.465 245.122 120.795ZM224.858 120.795C224.858 122.491 225.202 123.987 225.891 125.285C226.606 126.583 227.573 127.603 228.792 128.345C230.037 129.06 231.44 129.417 233.003 129.417C234.593 129.417 236.049 129.06 237.374 128.345C238.725 127.603 239.917 126.583 240.95 125.285C242.009 123.987 242.87 122.491 243.532 120.795C242.87 119.1 242.009 117.604 240.95 116.306C239.917 115.008 238.725 114.001 237.374 113.286C236.049 112.544 234.593 112.174 233.003 112.174C231.44 112.174 230.037 112.544 228.792 113.286C227.573 114.001 226.606 115.008 225.891 116.306C225.202 117.604 224.858 119.1 224.858 120.795ZM251.86 109.631H255.516L256.787 117.22V132H253.132V116.703L251.86 109.631ZM266.045 109.114C268.137 109.114 269.912 109.538 271.369 110.386C272.826 111.207 273.938 112.412 274.706 114.001C275.475 115.564 275.859 117.458 275.859 119.683V132H272.203V120.319C272.203 117.643 271.581 115.63 270.336 114.279C269.117 112.902 267.329 112.213 264.972 112.213C263.33 112.213 261.886 112.584 260.641 113.326C259.423 114.067 258.469 115.101 257.78 116.425C257.118 117.723 256.787 119.246 256.787 120.994L255.317 119.961C255.502 117.736 256.072 115.816 257.025 114.2C257.979 112.584 259.224 111.339 260.76 110.465C262.323 109.564 264.085 109.114 266.045 109.114ZM305.211 123.497C304.919 125.272 304.191 126.835 303.026 128.186C301.887 129.537 300.43 130.596 298.655 131.364C296.88 132.132 294.92 132.517 292.775 132.517C290.285 132.517 288.086 132.026 286.179 131.046C284.272 130.04 282.775 128.662 281.689 126.914C280.63 125.14 280.1 123.1 280.1 120.795C280.1 118.491 280.63 116.465 281.689 114.716C282.775 112.942 284.272 111.564 286.179 110.584C288.086 109.604 290.285 109.114 292.775 109.114C294.92 109.114 296.88 109.498 298.655 110.266C300.43 111.008 301.887 112.054 303.026 113.405C304.191 114.756 304.919 116.332 305.211 118.133H301.436C301.039 116.279 300.046 114.822 298.456 113.763C296.894 112.677 295 112.134 292.775 112.134C290.973 112.134 289.397 112.491 288.046 113.207C286.722 113.922 285.689 114.928 284.947 116.226C284.206 117.498 283.835 119.021 283.835 120.795C283.835 122.57 284.206 124.107 284.947 125.404C285.689 126.702 286.722 127.709 288.046 128.424C289.397 129.113 290.973 129.457 292.775 129.457C295.026 129.457 296.933 128.914 298.496 127.828C300.085 126.742 301.065 125.298 301.436 123.497H305.211ZM291.702 131.762H294.165L292.099 134.94L291.106 134.861C291.609 134.516 292.139 134.251 292.695 134.066C293.278 133.881 293.993 133.788 294.841 133.788C296.271 133.788 297.384 134.093 298.178 134.702C298.973 135.311 299.37 136.132 299.37 137.165C299.37 138.251 298.854 139.152 297.821 139.867C296.814 140.582 295.41 140.94 293.609 140.94C291.993 140.94 290.589 140.595 289.397 139.907C288.205 139.245 287.424 138.397 287.053 137.364H289.914C290.205 137.788 290.642 138.132 291.225 138.397C291.834 138.662 292.629 138.794 293.609 138.794C294.589 138.794 295.317 138.635 295.794 138.317C296.271 138.026 296.509 137.629 296.509 137.125C296.509 136.649 296.298 136.278 295.874 136.013C295.476 135.748 294.854 135.616 294.006 135.616C293.397 135.616 292.881 135.669 292.457 135.775C292.059 135.907 291.715 136.039 291.424 136.172H288.881L291.702 131.762ZM330.8 132L330.005 123.537L330.998 120.795L330.005 118.094L330.8 109.631H334.534L333.501 120.795L334.534 132H330.8ZM332.23 120.795C331.647 123.126 330.747 125.179 329.528 126.954C328.336 128.702 326.879 130.066 325.158 131.046C323.462 132.026 321.582 132.517 319.516 132.517C317.317 132.517 315.37 132.026 313.675 131.046C311.98 130.04 310.642 128.662 309.662 126.914C308.709 125.14 308.232 123.1 308.232 120.795C308.232 118.465 308.709 116.425 309.662 114.677C310.642 112.928 311.98 111.564 313.675 110.584C315.37 109.604 317.317 109.114 319.516 109.114C321.582 109.114 323.462 109.604 325.158 110.584C326.879 111.564 328.35 112.928 329.568 114.677C330.786 116.425 331.674 118.465 332.23 120.795ZM311.967 120.795C311.967 122.491 312.311 123.987 313 125.285C313.715 126.583 314.682 127.603 315.9 128.345C317.145 129.06 318.549 129.417 320.112 129.417C321.701 129.417 323.158 129.06 324.482 128.345C325.833 127.603 327.025 126.583 328.058 125.285C329.118 123.987 329.979 122.491 330.641 120.795C329.979 119.1 329.118 117.604 328.058 116.306C327.025 115.008 325.833 114.001 324.482 113.286C323.158 112.544 321.701 112.174 320.112 112.174C318.549 112.174 317.145 112.544 315.9 113.286C314.682 114.001 313.715 115.008 313 116.306C312.311 117.604 311.967 119.1 311.967 120.795ZM362.783 132.517C360.214 132.517 357.936 132.026 355.949 131.046C353.989 130.04 352.439 128.662 351.3 126.914C350.188 125.14 349.632 123.1 349.632 120.795C349.632 118.465 350.161 116.425 351.221 114.677C352.28 112.928 353.75 111.564 355.631 110.584C357.512 109.604 359.671 109.114 362.107 109.114C364.518 109.114 366.624 109.644 368.425 110.703C370.226 111.763 371.617 113.26 372.597 115.193C373.603 117.1 374.107 119.325 374.107 121.868H352.413V118.968H372.557L370.412 120.279C370.332 118.61 369.935 117.167 369.22 115.948C368.504 114.73 367.538 113.789 366.319 113.127C365.101 112.465 363.684 112.134 362.068 112.134C360.32 112.134 358.796 112.491 357.499 113.207C356.201 113.895 355.181 114.875 354.439 116.147C353.724 117.418 353.366 118.915 353.366 120.637C353.366 122.438 353.777 124.001 354.598 125.325C355.419 126.649 356.571 127.669 358.055 128.384C359.538 129.1 361.286 129.457 363.299 129.457C365.127 129.457 366.915 129.153 368.663 128.543C370.438 127.934 372.027 127.1 373.431 126.04V128.901C372.054 130.013 370.412 130.901 368.504 131.563C366.597 132.199 364.69 132.517 362.783 132.517ZM86.9799 158.551L88.8076 158.869L90.6353 158.551V181H86.9799V158.551ZM88.7679 155.253C88.0262 155.253 87.3905 155.028 86.8607 154.578C86.3574 154.101 86.1058 153.518 86.1058 152.83C86.1058 152.115 86.3574 151.532 86.8607 151.082C87.3905 150.605 88.0262 150.366 88.7679 150.366C89.5625 150.366 90.2115 150.605 90.7148 151.082C91.218 151.532 91.4697 152.115 91.4697 152.83C91.4697 153.518 91.218 154.101 90.7148 154.578C90.2115 155.028 89.5625 155.253 88.7679 155.253ZM95.5307 158.631H99.1861L100.458 166.22V181H96.8022V165.703L95.5307 158.631ZM109.715 158.114C111.808 158.114 113.582 158.538 115.039 159.386C116.496 160.207 117.609 161.412 118.377 163.001C119.145 164.564 119.529 166.458 119.529 168.683V181H115.874V169.319C115.874 166.643 115.251 164.63 114.006 163.279C112.788 161.902 111 161.213 108.642 161.213C107 161.213 105.557 161.584 104.312 162.326C103.093 163.067 102.14 164.101 101.451 165.425C100.789 166.723 100.458 168.246 100.458 169.994L98.9875 168.961C99.1729 166.736 99.7424 164.816 100.696 163.2C101.65 161.584 102.894 160.339 104.431 159.465C105.994 158.564 107.755 158.114 109.715 158.114ZM137.246 152.87C135.233 152.87 133.697 153.333 132.637 154.26C131.578 155.161 131.048 156.671 131.048 158.79V181H127.393V159.306C127.393 157.505 127.71 155.902 128.346 154.499C128.982 153.068 129.988 151.942 131.366 151.121C132.77 150.3 134.597 149.89 136.849 149.89C137.961 149.89 138.941 149.996 139.789 150.207C140.663 150.393 141.484 150.631 142.253 150.923V153.982C141.484 153.585 140.69 153.307 139.869 153.148C139.047 152.962 138.173 152.87 137.246 152.87ZM122.466 162.962V159.982H141.855V162.962H122.466ZM155.821 181.517C153.198 181.517 150.881 181.026 148.868 180.046C146.881 179.066 145.331 177.689 144.219 175.914C143.106 174.14 142.55 172.1 142.55 169.795C142.55 167.465 143.106 165.425 144.219 163.677C145.331 161.928 146.881 160.564 148.868 159.584C150.881 158.604 153.198 158.114 155.821 158.114C158.47 158.114 160.787 158.604 162.774 159.584C164.761 160.564 166.31 161.928 167.423 163.677C168.562 165.425 169.131 167.465 169.131 169.795C169.131 172.1 168.562 174.14 167.423 175.914C166.31 177.689 164.761 179.066 162.774 180.046C160.787 181.026 158.47 181.517 155.821 181.517ZM155.821 178.457C157.781 178.457 159.476 178.113 160.907 177.424C162.337 176.709 163.436 175.702 164.204 174.404C164.999 173.107 165.396 171.57 165.396 169.795C165.396 168.047 164.999 166.524 164.204 165.226C163.436 163.928 162.337 162.922 160.907 162.207C159.476 161.491 157.781 161.134 155.821 161.134C153.887 161.134 152.192 161.491 150.735 162.207C149.305 162.922 148.205 163.928 147.437 165.226C146.669 166.524 146.285 168.047 146.285 169.795C146.285 171.57 146.669 173.107 147.437 174.404C148.205 175.702 149.305 176.709 150.735 177.424C152.192 178.113 153.887 178.457 155.821 178.457ZM172.667 158.631H176.323L177.594 166.259V181H173.939V165.584L172.667 158.631ZM189.474 158.551V161.849C188.971 161.69 188.375 161.571 187.686 161.491C187.024 161.412 186.388 161.372 185.779 161.372C184.19 161.372 182.773 161.73 181.528 162.445C180.283 163.16 179.316 164.206 178.627 165.584C177.938 166.935 177.594 168.537 177.594 170.391L176.561 168.961C176.614 167.398 176.866 165.955 177.316 164.63C177.766 163.306 178.402 162.167 179.223 161.213C180.071 160.233 181.077 159.478 182.243 158.949C183.435 158.392 184.772 158.114 186.256 158.114C186.812 158.114 187.381 158.154 187.964 158.233C188.573 158.313 189.077 158.419 189.474 158.551ZM191.913 158.631H195.568L196.839 166.22V181H193.184V165.703L191.913 158.631ZM205.382 158.114C207.316 158.114 208.958 158.538 210.309 159.386C211.66 160.207 212.693 161.412 213.408 163.001C214.123 164.564 214.481 166.458 214.481 168.683V181H210.825V169.319C210.825 166.643 210.269 164.63 209.156 163.279C208.044 161.902 206.428 161.213 204.309 161.213C202.799 161.213 201.475 161.584 200.336 162.326C199.223 163.067 198.362 164.101 197.753 165.425C197.144 166.723 196.839 168.246 196.839 169.994L195.369 168.961C195.555 166.736 196.085 164.816 196.959 163.2C197.859 161.584 199.025 160.339 200.455 159.465C201.912 158.564 203.554 158.114 205.382 158.114ZM222.983 158.114C224.917 158.114 226.559 158.538 227.91 159.386C229.287 160.207 230.334 161.412 231.049 163.001C231.764 164.564 232.122 166.458 232.122 168.683V181H228.466V169.319C228.466 166.643 227.91 164.63 226.798 163.279C225.685 161.902 224.069 161.213 221.95 161.213C220.44 161.213 219.116 161.584 217.977 162.326C216.864 163.067 216.004 164.101 215.394 165.425C214.785 166.723 214.481 168.246 214.481 169.994L213.01 168.961C213.196 166.736 213.726 164.816 214.6 163.2C215.5 161.584 216.666 160.339 218.096 159.465C219.553 158.564 221.182 158.114 222.983 158.114ZM258.979 181L258.184 172.537L259.178 169.795L258.184 167.094L258.979 158.631H262.714L261.681 169.795L262.714 181H258.979ZM260.409 169.795C259.826 172.126 258.926 174.179 257.707 175.954C256.515 177.702 255.059 179.066 253.337 180.046C251.642 181.026 249.761 181.517 247.695 181.517C245.496 181.517 243.549 181.026 241.854 180.046C240.159 179.04 238.821 177.662 237.841 175.914C236.888 174.14 236.411 172.1 236.411 169.795C236.411 167.465 236.888 165.425 237.841 163.677C238.821 161.928 240.159 160.564 241.854 159.584C243.549 158.604 245.496 158.114 247.695 158.114C249.761 158.114 251.642 158.604 253.337 159.584C255.059 160.564 256.529 161.928 257.747 163.677C258.966 165.425 259.853 167.465 260.409 169.795ZM240.146 169.795C240.146 171.491 240.49 172.987 241.179 174.285C241.894 175.583 242.861 176.603 244.079 177.345C245.324 178.06 246.728 178.417 248.291 178.417C249.88 178.417 251.337 178.06 252.661 177.345C254.012 176.603 255.204 175.583 256.237 174.285C257.297 172.987 258.158 171.491 258.82 169.795C258.158 168.1 257.297 166.604 256.237 165.306C255.204 164.008 254.012 163.001 252.661 162.286C251.337 161.544 249.88 161.174 248.291 161.174C246.728 161.174 245.324 161.544 244.079 162.286C242.861 163.001 241.894 164.008 241.179 165.306C240.49 166.604 240.146 168.1 240.146 169.795ZM291.941 172.497C291.649 174.272 290.921 175.835 289.756 177.186C288.617 178.537 287.16 179.596 285.385 180.364C283.61 181.132 281.65 181.517 279.505 181.517C277.015 181.517 274.816 181.026 272.909 180.046C271.002 179.04 269.505 177.662 268.419 175.914C267.36 174.14 266.83 172.1 266.83 169.795C266.83 167.491 267.36 165.465 268.419 163.716C269.505 161.942 271.002 160.564 272.909 159.584C274.816 158.604 277.015 158.114 279.505 158.114C281.65 158.114 283.61 158.498 285.385 159.266C287.16 160.008 288.617 161.054 289.756 162.405C290.921 163.756 291.649 165.332 291.941 167.133H288.166C287.769 165.279 286.776 163.822 285.186 162.763C283.624 161.677 281.73 161.134 279.505 161.134C277.703 161.134 276.127 161.491 274.777 162.207C273.452 162.922 272.419 163.928 271.677 165.226C270.936 166.498 270.565 168.021 270.565 169.795C270.565 171.57 270.936 173.107 271.677 174.404C272.419 175.702 273.452 176.709 274.777 177.424C276.127 178.113 277.703 178.457 279.505 178.457C281.756 178.457 283.663 177.914 285.226 176.828C286.815 175.742 287.795 174.298 288.166 172.497H291.941ZM278.432 180.762H280.895L278.829 183.94L277.836 183.861C278.339 183.516 278.869 183.251 279.425 183.066C280.008 182.881 280.723 182.788 281.571 182.788C283.001 182.788 284.114 183.093 284.908 183.702C285.703 184.311 286.1 185.132 286.1 186.165C286.1 187.251 285.584 188.152 284.551 188.867C283.544 189.582 282.14 189.94 280.339 189.94C278.723 189.94 277.319 189.595 276.127 188.907C274.935 188.245 274.154 187.397 273.783 186.364H276.644C276.935 186.788 277.372 187.132 277.955 187.397C278.564 187.662 279.359 187.794 280.339 187.794C281.319 187.794 282.048 187.635 282.524 187.317C283.001 187.026 283.239 186.629 283.239 186.125C283.239 185.649 283.028 185.278 282.604 185.013C282.206 184.748 281.584 184.616 280.736 184.616C280.127 184.616 279.611 184.669 279.187 184.775C278.789 184.907 278.445 185.039 278.154 185.172H275.611L278.432 180.762ZM317.53 181L316.735 172.537L317.728 169.795L316.735 167.094L317.53 158.631H321.265L320.231 169.795L321.265 181H317.53ZM318.96 169.795C318.377 172.126 317.477 174.179 316.258 175.954C315.066 177.702 313.609 179.066 311.888 180.046C310.192 181.026 308.312 181.517 306.246 181.517C304.047 181.517 302.1 181.026 300.405 180.046C298.71 179.04 297.372 177.662 296.392 175.914C295.439 174.14 294.962 172.1 294.962 169.795C294.962 167.465 295.439 165.425 296.392 163.677C297.372 161.928 298.71 160.564 300.405 159.584C302.1 158.604 304.047 158.114 306.246 158.114C308.312 158.114 310.192 158.604 311.888 159.584C313.609 160.564 315.08 161.928 316.298 163.677C317.516 165.425 318.404 167.465 318.96 169.795ZM298.697 169.795C298.697 171.491 299.041 172.987 299.73 174.285C300.445 175.583 301.412 176.603 302.63 177.345C303.875 178.06 305.279 178.417 306.842 178.417C308.431 178.417 309.888 178.06 311.212 177.345C312.563 176.603 313.755 175.583 314.788 174.285C315.848 172.987 316.709 171.491 317.371 169.795C316.709 168.1 315.848 166.604 314.788 165.306C313.755 164.008 312.563 163.001 311.212 162.286C309.888 161.544 308.431 161.174 306.842 161.174C305.279 161.174 303.875 161.544 302.63 162.286C301.412 163.001 300.445 164.008 299.73 165.306C299.041 166.604 298.697 168.1 298.697 169.795ZM299.809 155.253C299.942 153.585 300.405 152.26 301.2 151.28C301.994 150.274 303.094 149.77 304.498 149.77C305.16 149.77 305.809 149.903 306.444 150.168C307.08 150.433 307.689 150.724 308.272 151.042C308.881 151.36 309.451 151.651 309.981 151.916C310.537 152.154 311.04 152.274 311.49 152.274C312.1 152.274 312.603 152.062 313 151.638C313.398 151.188 313.649 150.578 313.755 149.81H316.457C316.351 151.399 315.901 152.711 315.106 153.744C314.311 154.75 313.199 155.253 311.769 155.253C311.106 155.253 310.457 155.121 309.822 154.856C309.186 154.591 308.563 154.3 307.954 153.982C307.371 153.664 306.815 153.386 306.285 153.148C305.756 152.883 305.266 152.75 304.815 152.75C304.206 152.75 303.703 152.975 303.306 153.426C302.935 153.85 302.683 154.459 302.551 155.253H299.809ZM338.651 181.517C336.029 181.517 333.711 181.026 331.698 180.046C329.712 179.066 328.162 177.689 327.05 175.914C325.937 174.14 325.381 172.1 325.381 169.795C325.381 167.465 325.937 165.425 327.05 163.677C328.162 161.928 329.712 160.564 331.698 159.584C333.711 158.604 336.029 158.114 338.651 158.114C341.3 158.114 343.618 158.604 345.605 159.584C347.591 160.564 349.141 161.928 350.253 163.677C351.392 165.425 351.962 167.465 351.962 169.795C351.962 172.1 351.392 174.14 350.253 175.914C349.141 177.689 347.591 179.066 345.605 180.046C343.618 181.026 341.3 181.517 338.651 181.517ZM338.651 178.457C340.612 178.457 342.307 178.113 343.737 177.424C345.168 176.709 346.267 175.702 347.035 174.404C347.83 173.107 348.227 171.57 348.227 169.795C348.227 168.047 347.83 166.524 347.035 165.226C346.267 163.928 345.168 162.922 343.737 162.207C342.307 161.491 340.612 161.134 338.651 161.134C336.718 161.134 335.023 161.491 333.566 162.207C332.135 162.922 331.036 163.928 330.268 165.226C329.5 166.524 329.116 168.047 329.116 169.795C329.116 171.57 329.5 173.107 330.268 174.404C331.036 175.702 332.135 176.709 333.566 177.424C335.023 178.113 336.718 178.457 338.651 178.457ZM85.9469 207.631H89.6023L90.8737 215.22V230H87.2183V214.703L85.9469 207.631ZM100.131 207.114C102.224 207.114 103.999 207.538 105.455 208.386C106.912 209.207 108.025 210.412 108.793 212.001C109.561 213.564 109.945 215.458 109.945 217.683V230H106.29V218.319C106.29 215.643 105.667 213.63 104.422 212.279C103.204 210.902 101.416 210.213 99.0585 210.213C97.4163 210.213 95.9727 210.584 94.7277 211.326C93.5093 212.067 92.5557 213.101 91.867 214.425C91.2048 215.723 90.8737 217.246 90.8737 218.994L89.4036 217.961C89.589 215.736 90.1585 213.816 91.1121 212.2C92.0657 210.584 93.3106 209.339 94.8469 208.465C96.4097 207.564 98.1712 207.114 100.131 207.114ZM127.457 230.517C124.835 230.517 122.517 230.026 120.504 229.046C118.517 228.066 116.968 226.689 115.855 224.914C114.743 223.14 114.187 221.1 114.187 218.795C114.187 216.465 114.743 214.425 115.855 212.677C116.968 210.928 118.517 209.564 120.504 208.584C122.517 207.604 124.835 207.114 127.457 207.114C130.106 207.114 132.424 207.604 134.41 208.584C136.397 209.564 137.947 210.928 139.059 212.677C140.198 214.425 140.768 216.465 140.768 218.795C140.768 221.1 140.198 223.14 139.059 224.914C137.947 226.689 136.397 228.066 134.41 229.046C132.424 230.026 130.106 230.517 127.457 230.517ZM127.457 227.457C129.417 227.457 131.113 227.113 132.543 226.424C133.973 225.709 135.073 224.702 135.841 223.404C136.635 222.107 137.033 220.57 137.033 218.795C137.033 217.047 136.635 215.524 135.841 214.226C135.073 212.928 133.973 211.922 132.543 211.207C131.113 210.491 129.417 210.134 127.457 210.134C125.524 210.134 123.828 210.491 122.371 211.207C120.941 211.922 119.842 212.928 119.074 214.226C118.306 215.524 117.921 217.047 117.921 218.795C117.921 220.57 118.306 222.107 119.074 223.404C119.842 224.702 120.941 225.709 122.371 226.424C123.828 227.113 125.524 227.457 127.457 227.457ZM155.284 207.631H158.94L160.211 215.22V230H156.556V214.703L155.284 207.631ZM168.754 207.114C170.687 207.114 172.33 207.538 173.68 208.386C175.031 209.207 176.064 210.412 176.78 212.001C177.495 213.564 177.852 215.458 177.852 217.683V230H174.197V218.319C174.197 215.643 173.641 213.63 172.528 212.279C171.416 210.902 169.8 210.213 167.681 210.213C166.171 210.213 164.847 210.584 163.708 211.326C162.595 212.067 161.734 213.101 161.125 214.425C160.516 215.723 160.211 217.246 160.211 218.994L158.741 217.961C158.927 215.736 159.456 213.816 160.33 212.2C161.231 210.584 162.396 209.339 163.827 208.465C165.284 207.564 166.926 207.114 168.754 207.114ZM186.355 207.114C188.289 207.114 189.931 207.538 191.282 208.386C192.659 209.207 193.706 210.412 194.421 212.001C195.136 213.564 195.493 215.458 195.493 217.683V230H191.838V218.319C191.838 215.643 191.282 213.63 190.169 212.279C189.057 210.902 187.441 210.213 185.322 210.213C183.812 210.213 182.488 210.584 181.349 211.326C180.236 212.067 179.375 213.101 178.766 214.425C178.157 215.723 177.852 217.246 177.852 218.994L176.382 217.961C176.568 215.736 177.097 213.816 177.972 212.2C178.872 210.584 180.038 209.339 181.468 208.465C182.925 207.564 184.554 207.114 186.355 207.114ZM210.352 230.517C208.312 230.517 206.577 230.106 205.147 229.285C203.743 228.437 202.657 227.219 201.889 225.629C201.147 224.04 200.776 222.133 200.776 219.908V207.631H204.431V219.312C204.431 221.961 205.027 223.974 206.219 225.351C207.411 226.702 209.146 227.378 211.424 227.378C213.04 227.378 214.444 227.02 215.636 226.305C216.828 225.563 217.755 224.53 218.417 223.206C219.079 221.881 219.41 220.345 219.41 218.597L220.841 219.431C220.682 221.683 220.126 223.643 219.172 225.312C218.245 226.98 217.027 228.265 215.517 229.166C214.007 230.066 212.285 230.517 210.352 230.517ZM220.642 230L219.41 222.371V207.631H223.066V222.928L224.298 230H220.642ZM228.192 207.631H231.847L233.118 215.22V230H229.463V214.703L228.192 207.631ZM242.376 207.114C244.469 207.114 246.243 207.538 247.7 208.386C249.157 209.207 250.27 210.412 251.038 212.001C251.806 213.564 252.19 215.458 252.19 217.683V230H248.535V218.319C248.535 215.643 247.912 213.63 246.667 212.279C245.449 210.902 243.661 210.213 241.303 210.213C239.661 210.213 238.217 210.584 236.972 211.326C235.754 212.067 234.8 213.101 234.112 214.425C233.45 215.723 233.118 217.246 233.118 218.994L231.648 217.961C231.834 215.736 232.403 213.816 233.357 212.2C234.31 210.584 235.555 209.339 237.092 208.465C238.654 207.564 240.416 207.114 242.376 207.114ZM279.079 230L278.284 221.458L279.357 218.835L278.364 216.014L279.913 199.406H283.648L281.781 218.637L282.814 230H279.079ZM280.469 218.795C279.887 221.126 278.986 223.179 277.768 224.954C276.576 226.702 275.119 228.066 273.397 229.046C271.702 230.026 269.821 230.517 267.755 230.517C265.557 230.517 263.61 230.026 261.914 229.046C260.219 228.04 258.882 226.662 257.901 224.914C256.948 223.14 256.471 221.1 256.471 218.795C256.471 216.465 256.948 214.425 257.901 212.677C258.882 210.928 260.219 209.564 261.914 208.584C263.61 207.604 265.557 207.114 267.755 207.114C269.821 207.114 271.702 207.604 273.397 208.584C275.119 209.564 276.589 210.928 277.807 212.677C279.026 214.425 279.913 216.465 280.469 218.795ZM260.206 218.795C260.206 220.491 260.55 221.987 261.239 223.285C261.954 224.583 262.921 225.603 264.139 226.345C265.384 227.06 266.788 227.417 268.351 227.417C269.94 227.417 271.397 227.06 272.722 226.345C274.072 225.603 275.264 224.583 276.297 223.285C277.357 221.987 278.218 220.491 278.88 218.795C278.218 217.1 277.357 215.604 276.297 214.306C275.264 213.008 274.072 212.001 272.722 211.286C271.397 210.544 269.94 210.174 268.351 210.174C266.788 210.174 265.384 210.544 264.139 211.286C262.921 212.001 261.954 213.008 261.239 214.306C260.55 215.604 260.206 217.1 260.206 218.795ZM300.161 230.517C297.538 230.517 295.221 230.026 293.208 229.046C291.221 228.066 289.671 226.689 288.559 224.914C287.446 223.14 286.89 221.1 286.89 218.795C286.89 216.465 287.446 214.425 288.559 212.677C289.671 210.928 291.221 209.564 293.208 208.584C295.221 207.604 297.538 207.114 300.161 207.114C302.81 207.114 305.127 207.604 307.114 208.584C309.101 209.564 310.65 210.928 311.763 212.677C312.902 214.425 313.471 216.465 313.471 218.795C313.471 221.1 312.902 223.14 311.763 224.914C310.65 226.689 309.101 228.066 307.114 229.046C305.127 230.026 302.81 230.517 300.161 230.517ZM300.161 227.457C302.121 227.457 303.816 227.113 305.247 226.424C306.677 225.709 307.776 224.702 308.544 223.404C309.339 222.107 309.736 220.57 309.736 218.795C309.736 217.047 309.339 215.524 308.544 214.226C307.776 212.928 306.677 211.922 305.247 211.207C303.816 210.491 302.121 210.134 300.161 210.134C298.227 210.134 296.532 210.491 295.075 211.207C293.645 211.922 292.545 212.928 291.777 214.226C291.009 215.524 290.625 217.047 290.625 218.795C290.625 220.57 291.009 222.107 291.777 223.404C292.545 224.702 293.645 225.709 295.075 226.424C296.532 227.113 298.227 227.457 300.161 227.457ZM84.1589 259.571V257.823L89.0857 256.909L90.5558 250.83H92.7411V256.631H103.628V259.571H92.7411V270.934C92.7411 272.947 93.1782 274.365 94.0523 275.186C94.9529 275.98 96.3303 276.378 98.1844 276.378C99.4029 276.378 100.462 276.232 101.363 275.941C102.29 275.649 103.191 275.225 104.065 274.669V277.887C103.429 278.285 102.489 278.656 101.244 279C100.025 279.344 98.7539 279.517 97.4295 279.517C95.4164 279.517 93.7874 279.172 92.5424 278.483C91.324 277.768 90.4366 276.815 89.8804 275.623C89.3506 274.404 89.0857 273.027 89.0857 271.491V259.571H84.1589ZM119.115 279.517C116.493 279.517 114.175 279.026 112.162 278.046C110.175 277.066 108.626 275.689 107.513 273.914C106.401 272.14 105.844 270.1 105.844 267.795C105.844 265.465 106.401 263.425 107.513 261.677C108.626 259.928 110.175 258.564 112.162 257.584C114.175 256.604 116.493 256.114 119.115 256.114C121.764 256.114 124.082 256.604 126.068 257.584C128.055 258.564 129.604 259.928 130.717 261.677C131.856 263.425 132.425 265.465 132.425 267.795C132.425 270.1 131.856 272.14 130.717 273.914C129.604 275.689 128.055 277.066 126.068 278.046C124.082 279.026 121.764 279.517 119.115 279.517ZM119.115 276.457C121.075 276.457 122.77 276.113 124.201 275.424C125.631 274.709 126.73 273.702 127.498 272.404C128.293 271.107 128.69 269.57 128.69 267.795C128.69 266.047 128.293 264.524 127.498 263.226C126.73 261.928 125.631 260.922 124.201 260.207C122.77 259.491 121.075 259.134 119.115 259.134C117.181 259.134 115.486 259.491 114.029 260.207C112.599 260.922 111.5 261.928 110.731 263.226C109.963 264.524 109.579 266.047 109.579 267.795C109.579 269.57 109.963 271.107 110.731 272.404C111.5 273.702 112.599 274.709 114.029 275.424C115.486 276.113 117.181 276.457 119.115 276.457ZM158.291 279L157.496 270.458L158.569 267.835L157.576 265.014L159.125 248.406H162.86L160.993 267.637L162.026 279H158.291ZM159.682 267.795C159.099 270.126 158.198 272.179 156.98 273.954C155.788 275.702 154.331 277.066 152.609 278.046C150.914 279.026 149.033 279.517 146.967 279.517C144.769 279.517 142.822 279.026 141.127 278.046C139.431 277.04 138.094 275.662 137.114 273.914C136.16 272.14 135.683 270.1 135.683 267.795C135.683 265.465 136.16 263.425 137.114 261.677C138.094 259.928 139.431 258.564 141.127 257.584C142.822 256.604 144.769 256.114 146.967 256.114C149.033 256.114 150.914 256.604 152.609 257.584C154.331 258.564 155.801 259.928 157.02 261.677C158.238 263.425 159.125 265.465 159.682 267.795ZM139.418 267.795C139.418 269.491 139.763 270.987 140.451 272.285C141.166 273.583 142.133 274.603 143.352 275.345C144.597 276.06 146 276.417 147.563 276.417C149.153 276.417 150.609 276.06 151.934 275.345C153.285 274.603 154.477 273.583 155.51 272.285C156.569 270.987 157.43 269.491 158.092 267.795C157.43 266.1 156.569 264.604 155.51 263.306C154.477 262.008 153.285 261.001 151.934 260.286C150.609 259.544 149.153 259.174 147.563 259.174C146 259.174 144.597 259.544 143.352 260.286C142.133 261.001 141.166 262.008 140.451 263.306C139.763 264.604 139.418 266.1 139.418 267.795ZM179.373 279.517C176.751 279.517 174.433 279.026 172.42 278.046C170.433 277.066 168.884 275.689 167.771 273.914C166.659 272.14 166.102 270.1 166.102 267.795C166.102 265.465 166.659 263.425 167.771 261.677C168.884 259.928 170.433 258.564 172.42 257.584C174.433 256.604 176.751 256.114 179.373 256.114C182.022 256.114 184.34 256.604 186.326 257.584C188.313 258.564 189.862 259.928 190.975 261.677C192.114 263.425 192.683 265.465 192.683 267.795C192.683 270.1 192.114 272.14 190.975 273.914C189.862 275.689 188.313 277.066 186.326 278.046C184.34 279.026 182.022 279.517 179.373 279.517ZM179.373 276.457C181.333 276.457 183.028 276.113 184.459 275.424C185.889 274.709 186.988 273.702 187.757 272.404C188.551 271.107 188.949 269.57 188.949 267.795C188.949 266.047 188.551 264.524 187.757 263.226C186.988 261.928 185.889 260.922 184.459 260.207C183.028 259.491 181.333 259.134 179.373 259.134C177.439 259.134 175.744 259.491 174.287 260.207C172.857 260.922 171.758 261.928 170.99 263.226C170.221 264.524 169.837 266.047 169.837 267.795C169.837 269.57 170.221 271.107 170.99 272.404C171.758 273.702 172.857 274.709 174.287 275.424C175.744 276.113 177.439 276.457 179.373 276.457ZM197.531 249.201H201.266L200.709 270.696H198.127L197.531 249.201ZM199.398 279.278C198.683 279.278 198.074 279.04 197.57 278.563C197.094 278.086 196.855 277.49 196.855 276.775C196.855 276.06 197.094 275.477 197.57 275.027C198.074 274.55 198.683 274.312 199.398 274.312C200.14 274.312 200.749 274.55 201.226 275.027C201.729 275.477 201.981 276.06 201.981 276.775C201.981 277.49 201.729 278.086 201.226 278.563C200.749 279.04 200.14 279.278 199.398 279.278Z" fill="#5E22F3"/>
<defs>
<filter id="filter0_f_438_485" x="0.799999" y="0.799999" width="468.4" height="380.4" filterUnits="userSpaceOnUse" color-interpolation-filters="sRGB">
<feFlood flood-opacity="0" result="BackgroundImageFix"/>
<feBlend mode="normal" in="SourceGraphic" in2="BackgroundImageFix" result="shape"/>
<feGaussianBlur stdDeviation="17.1" result="effect1_foregroundBlur_438_485"/>
</filter>
</defs>
</svg>
